<?xml version="1.0" encoding="utf-8"?>
<!-- Generator: Adobe Illustrator 25.2.1, SVG Export Plug-In . SVG Version: 6.00 Build 0)  -->
<svg version="1.1" id="Layer_1" xmlns="http://www.w3.org/2000/svg" xmlns:xlink="http://www.w3.org/1999/xlink" x="0px" y="0px"
	 viewBox="0 0 24 24" style="enable-background:new 0 0 24 24;" xml:space="preserve">
<g>
	<path d="M8.7,13.5c0.6-0.4,1.2-0.8,1.9-1c0.4-0.2,0.8-0.2,1.3-0.2c2.4,0,4.2,0,6.6,0c0.8,0,1-0.3,0.7-1c-0.4-1-0.8-2.2-1.1-3.2
		c-0.2-0.5-0.5-0.4-1.1-0.4c-2.3,0-4,0-6.4,0c-0.3,0-0.5-0.1-0.8-0.1c-0.2,0-0.3-0.1-0.5-0.1c0-0.1,0-0.2,0-0.2
		C9.5,7.1,9.7,6.9,10,6.9c2.6,0,5.2,0,7.7,0c0.5,0,0.9,0.2,1.1,0.7c0.4,0.9,0.8,2,1.1,2.9c0.1,0.2,0.2,0.4,0.2,0.5
		c0.5-0.1,1-0.2,1.5-0.2c0.4,0,0.7,0.1,0.8,0.5c0,0.5-0.1,0.8-0.6,0.9c-0.3,0.1-0.6,0.1-0.9,0.1C21.8,13,22,14,22,14.8
		c0,0.4-0.1,0.8,0.4,1.1c0.3,0.2,0.1,1.8-0.3,2c-0.4,0.2-0.4,0.5-0.4,0.8c0,1.1-0.2,1.3-1.3,1.3c-1.2,0-1.9,0.1-1.8-1.7
		c0-0.1,0-0.1,0-0.2c-3.1,0-6.2,0-9.3,0c0,0.4,0,0.7,0,1.1c0,0.5-0.3,0.8-0.8,0.8c-0.4,0-0.8,0-1.2,0c-0.6,0-0.9-0.3-0.9-0.9
		c0-0.5,0.1-1-0.6-1.3c-0.3-0.1-0.5-1.7-0.2-1.9c0.4-0.3,0.3-0.6,0.4-1c0-1.1-0.1-1.8,0.6-2.5c-0.3,0-0.5-0.1-0.8-0.1
		c-0.5-0.1-0.6-0.5-0.6-1c0-0.4,0.3-0.5,0.7-0.5s1.1,0,1.2,0.6c0.1,0.7,0.5,1.3-0.1,2c-0.6,0.6-0.1,1.8,0.8,1.8c0.5,0,0.8,0,1.2,0
		c0.5,0,0.7-0.3,0.4-0.8C9.1,14,9,13.8,8.7,13.5z M19.5,15.1L19.5,15.1c0.2,0,0.3,0,0.5,0c0.5-0.1,0.8-0.3,0.9-0.8
		c0.1-0.5,0-0.9-0.4-1.2c-0.4-0.3-0.8-0.2-1.1,0c-0.4,0.3-0.8,0.6-1.1,0.9c-0.4,0.5-0.3,0.8,0.3,1C18.9,15,19.2,15.1,19.5,15.1z"/>
	<path d="M9.6,6.6c-1,0.8-1.9,1.4-2.9,2.3C6.5,8.5,6.4,8.3,6.2,8.1C5.9,7.7,6,7.1,6.4,6.7c0.4-0.3,0.9-0.6,1.3-1
		c0.4-0.4,1-0.3,1.3,0.2C9.2,6,9.4,6.4,9.6,6.6z"/>
	<path d="M8.2,12.2C9.2,12,9,12,8.7,10.6C8.8,10.8,8.9,11,9,11.1s0.2,0.3,0.3,0.5c0.3-0.2,0.6-0.3,0.9-0.5c0-0.3-0.1-0.5-0.1-0.8
		c0.2,0.1,0.4,0.2,0.6,0.3c0.2-0.2,0.5-0.5,0.9-0.8c-0.2-0.3-0.4-0.4-0.6-0.6c1,0.2,1,0.2,1.3-0.3c-1-0.5-1.9-1.1-2.9-1.5
		c0-0.1,0.4-0.4,0.5-0.4c1,0.5,2.7,1.2,3.7,1.9c-1.1,1.9-3.7,3.7-5.9,4.3c-0.3-1.1-0.3-2.8-0.6-4c0.1,0,0.4-0.3,0.5-0.4
		C7.9,9.7,7.9,9.8,8,10.5C8.2,10.9,8,11.6,8.2,12.2z"/>
	<path d="M6.4,6.2C5.9,5.6,5.4,5,5.1,4.4c-0.1-0.2,0-0.5,0-0.9c0.2,0.2,0.6,0.1,0.8,0.3c0.4,0.5,0.9,1.1,1.3,1.8
		C7,5.8,6.7,6,6.4,6.2z"/>
	<path d="M20,6.2c0-1.3-0.6-1.6-1.8-1.8c1.1-0.2,1.9-0.6,1.8-1.9c0.2,1.1,0.5,1.9,1.9,1.8C20.7,4.4,20.2,5.1,20,6.2z"/>
	<path d="M3.5,15.6c0-1.4-0.7-1.9-2.1-2.1c1.2-0.2,2.1-0.5,1.9-2.1c0.2,1.2,0.7,2.1,2.1,1.9C4.2,13.6,3.5,14.2,3.5,15.6z"/>
</g>
</svg>
