<?xml version="1.0" encoding="utf-8"?>
<!-- Generator: Adobe Illustrator 25.2.1, SVG Export Plug-In . SVG Version: 6.00 Build 0)  -->
<svg version="1.1" id="Layer_1" xmlns="http://www.w3.org/2000/svg" xmlns:xlink="http://www.w3.org/1999/xlink" x="0px" y="0px"
	 viewBox="0 0 24 24" style="enable-background:new 0 0 24 24;" xml:space="preserve">
<style type="text/css">
	.st0{fill:#3F3F3F;}
</style>
<path class="st0" d="M16,11.8c-2.7,0.1-4.8,0.1-7.5,0.3c0.1-0.9,0.2-1.4,0.1-2c0-1.1,0.9-1.9,1.9-2c1.1,0,2.3,0.1,3.5-0.1
	c1.2-0.2,2.1,0.7,2,2C16,10.3,15.9,11.2,16,11.8z"/>
<path class="st0" d="M5.6,20.2c2.2,0.9,1.8,0.7,3.2-2.5c-0.1,0.5-0.2,1.1-0.2,1.4s-0.1,0.9-0.2,1.4c0.8,0,1.6,0.2,2.4,0.2
	c0.4-0.6,0.5-1.1,1-1.7c0.2,0.5,0.5,0.9,0.7,1.4c0.7-0.1,1.6-0.3,2.8-0.4c0.1-0.9-0.2-1.3-0.3-2c1.6,1.7,1.6,1.7,2.9,1.1
	c-1.2-2.3-1.8-4.6-3.1-6.7c0.1-0.2,1.3-0.3,1.5-0.1c1.2,2.3,3.1,5.9,4.2,8.4C15.9,22.7,8.7,23,3.9,21.4c1-2.6,3.3-5.8,4.4-8.6
	c0.2,0.1,1.2-0.1,1.5-0.1c-1.2,2.5-1.3,2.7-2,4C7.5,17.5,6.3,18.8,5.6,20.2z"/>
<path class="st0" d="M11.1,7.3C10.9,5.6,10.8,4,11,2.6c0.1-0.5,0.6-0.8,1.1-1.5c0.1,0.6,0.9,0.9,1,1.5c0.1,1.3,0.2,3,0.2,4.5
	C12.6,7.3,11.8,7.3,11.1,7.3z"/>
</svg>
