<?xml version="1.0" encoding="utf-8"?>
<!-- Generator: Adobe Illustrator 25.2.1, SVG Export Plug-In . SVG Version: 6.00 Build 0)  -->
<svg version="1.1" id="Layer_1" xmlns="http://www.w3.org/2000/svg" xmlns:xlink="http://www.w3.org/1999/xlink" x="0px" y="0px"
	 viewBox="0 0 24 24" style="enable-background:new 0 0 24 24;" xml:space="preserve">
<path d="M18,15v-2h2c0.3,0,0.5,0.1,0.7,0.3c0.2,0.2,0.3,0.4,0.3,0.7s-0.1,0.5-0.3,0.7C20.5,14.9,20.3,15,20,15H18z M18,19v-2h2
	c0.3,0,0.5,0.1,0.7,0.3c0.2,0.2,0.3,0.4,0.3,0.7s-0.1,0.5-0.3,0.7C20.5,18.9,20.3,19,20,19H18z M14,20c-0.6,0-1-0.2-1.4-0.6
	S12,18.5,12,18h-2v-4h2c0-0.6,0.2-1,0.6-1.4S13.4,12,14,12h3v8H14z M7,17c-1.1,0-2-0.4-2.8-1.2S3,14.1,3,13s0.4-2,1.2-2.8S5.9,9,7,9
	h1.5c0.4,0,0.8-0.1,1.1-0.4C9.9,8.3,10,7.9,10,7.5c0-0.4-0.1-0.8-0.4-1.1C9.3,6.1,8.9,6,8.5,6H5C4.7,6,4.5,5.9,4.3,5.7
	C4.1,5.5,4,5.3,4,5s0.1-0.5,0.3-0.7C4.5,4.1,4.7,4,5,4h3.5c1,0,1.8,0.3,2.5,1s1,1.5,1,2.5s-0.3,1.8-1,2.5c-0.7,0.7-1.5,1-2.5,1H7
	c-0.5,0-1,0.2-1.4,0.6C5.2,12,5,12.4,5,13s0.2,1,0.6,1.4S6.5,15,7,15h2v2H7z"/>
</svg>
