<?xml version="1.0" encoding="utf-8"?>
<!-- Generator: Adobe Illustrator 25.2.1, SVG Export Plug-In . SVG Version: 6.00 Build 0)  -->
<svg version="1.1" id="Layer_1" xmlns="http://www.w3.org/2000/svg" xmlns:xlink="http://www.w3.org/1999/xlink" x="0px" y="0px"
	 viewBox="0 0 24 24" style="enable-background:new 0 0 24 24;" xml:space="preserve">
<path d="M5,20v-4H3v-2h2v-2H3v-2h2V7l3-3l2,2l2-2l2,2l2-2l3,3v3h2v2h-2v2h2v2h-2v4H5z M7,10h2V7.8l-1-1l-1,1V10z M11,10h2V7.8l-1-1
	l-1,1V10z M15,10h2V7.8l-1-1l-1,1V10z M7,14h2v-2H7V14z M11,14h2v-2h-2V14z M15,14h2v-2h-2V14z M7,18h2v-2H7V18z M11,18h2v-2h-2V18z
	 M15,18h2v-2h-2V18z"/>
</svg>
