<?xml version="1.0" encoding="utf-8"?>
<!-- Generator: Adobe Illustrator 25.2.1, SVG Export Plug-In . SVG Version: 6.00 Build 0)  -->
<svg version="1.1" id="Layer_1" xmlns="http://www.w3.org/2000/svg" xmlns:xlink="http://www.w3.org/1999/xlink" x="0px" y="0px"
	 viewBox="0 0 24 24" style="enable-background:new 0 0 24 24;" xml:space="preserve">
<g id="Layer_6">
</g>
<g id="Layer_3">
	<path d="M3.6,10.1L12.4,5l8.7,5c0.3,0.2,1,0.1,1.4-0.3c0.2-0.5,0.1-1-0.2-1.4l-9.7-6.1l-10,6.1C2.2,8.5,2,9.1,2.3,9.7
		C2.4,10,3.1,10.3,3.6,10.1L3.6,10.1z"/>
</g>
<g id="Layer_4">
	<path d="M8.9,16.4H4.3c-0.1,0-2.5,0-2.5,0.1v2.9c0,0.2,4.7,0.3,5.1,0.5c2.5,0.7,4.6,1.7,7.4,1.6c2.3-0.1,5.1-1.4,7.2-2.1
		c0.6-0.2,1.3-0.7,0.2-0.9h-3.4c-0.5,0-0.5,0.9-1.7,0.9h-2.9c-0.2,0-0.5-0.6,0-0.6h3.2c0.2,0,0.7-0.5,0.7-0.7c0-0.6-0.8-0.7-1.2-0.7
		h-2.9c-0.8,0-0.9-0.5-1.5-0.8C11.2,16.1,10,16.4,8.9,16.4L8.9,16.4z"/>
</g>
<path d="M4.1,15.8L4.1,15.8c-0.3,0-0.6-0.2-0.6-0.6v-3.8c0-0.3,0.2-0.6,0.6-0.6l0,0c0.3,0,0.6,0.2,0.6,0.6v3.8
	C4.6,15.5,4.3,15.8,4.1,15.8z"/>
<path d="M20.7,17.9L20.7,17.9c-0.3,0-0.6-0.2-0.6-0.6v-5.8c0-0.3,0.2-0.6,0.6-0.6l0,0c0.3,0,0.6,0.2,0.6,0.6v5.8
	C21.3,17.5,21.1,17.9,20.7,17.9z"/>
<path d="M11.2,8.9c0,0.9,0.7,1.6,1.6,1.6c0.9,0,1.6-0.7,1.6-1.6s-0.7-1.6-1.6-1.6C11.9,7.3,11.2,8,11.2,8.9L11.2,8.9z"/>
<g id="Layer_2_1_">
	<path d="M11.9,11.5h1.7c0.9-0.1,2,0.4,2.2,1l0,0v4.3l0,0h-1.3l0,0c0,0-1.3-1.4-1.9-1.4h-2.2l0,0H9.7l0,0v-2.9l0,0
		C9.7,11.9,11,11.3,11.9,11.5z"/>
</g>
<path d="M4.6,5.3C4.6,4,4,3.7,2.8,3.5C4,3.4,4.8,2.9,4.6,1.6c0.2,1.1,0.5,1.9,1.9,1.8C5.3,3.5,4.8,4.2,4.6,5.3z"/>
<path d="M20,5.3c0-1.3-0.6-1.6-1.8-1.8c1.1-0.2,1.9-0.6,1.8-1.9c0.2,1.1,0.5,1.9,1.9,1.8C20.7,3.5,20.2,4.2,20,5.3z"/>
</svg>
