<?xml version="1.0" encoding="utf-8"?>
<!-- Generator: Adobe Illustrator 25.2.1, SVG Export Plug-In . SVG Version: 6.00 Build 0)  -->
<svg version="1.1" id="Layer_3" xmlns="http://www.w3.org/2000/svg" xmlns:xlink="http://www.w3.org/1999/xlink" x="0px" y="0px"
	 viewBox="0 0 24 24" style="enable-background:new 0 0 24 24;" xml:space="preserve">
<style type="text/css">
	.st0{fill:#FFFFFF;}
</style>
<g>
	<path d="M14.3,16.9c1-0.1,2.1-0.2,3.2-0.3c0.3,0,0.3-0.1,0.3-0.4c-0.2-1,0.1-1.8,0.9-2.4c0.1-0.1,0.1-0.2,0.1-0.2
		c0-0.1-0.1-0.2-0.2-0.2c-1.1-0.1-2.2-0.2-3.3-0.3c-1,0-2,0-3,0.1c-0.7,0-1.2,0-1.9-0.2c-0.2-0.1-0.3,0-0.4,0.1
		c-0.1,0.2,0,0.3,0.1,0.3c0.7,0.4,1,1.1,1.1,1.9c0,0.3,0,0.8-0.1,1.1c0,0.3,0,0.3,0.3,0.4C12.3,16.9,13.3,16.9,14.3,16.9z"/>
	<path d="M2.3,11.3c0,0.8,0.1,1.5,0.1,2.3c0,0.2,0.1,0.3,0.3,0.4c1.1,0.2,2,0.4,3,0.7c0.1,0,0.2-0.1,0.2-0.1c0.4-0.8,1-1.3,1.9-1.4
		c0.4-0.1,0.6-0.3,0.3-0.8c-0.2-0.4-0.6-0.8-0.8-1.2C7.2,11,7.2,11,7.1,10.9c-1.4-0.8-2.9-1.5-4.4-2.3C2.4,8.4,2.3,8.5,2.3,8.9
		C2.3,9.7,2.3,10.5,2.3,11.3C2.3,11.3,2.4,11.3,2.3,11.3z"/>
	<path d="M11.7,12.8c1.9,0,3.6-0.2,5.5,0c0-0.3,0-0.7-0.1-0.9c-0.1-0.6-0.6-0.8-1-0.8c-1.1-0.1-2.2-0.2-3.3-0.2
		c-0.8,0-1.2,0.4-1.1,1.1C11.7,12.2,11.7,12.5,11.7,12.8z"/>
	<circle cx="20.7" cy="16" r="2.2"/>
	<circle cx="8.4" cy="15.8" r="2.2"/>
	<circle class="st0" cx="8.4" cy="15.8" r="0.8"/>
	<circle class="st0" cx="20.7" cy="16" r="0.8"/>
</g>
<path d="M10.5,11.9L1.3,7.1C1,7,1,6.7,1.1,6.5l0,0c0.1-0.2,0.4-0.3,0.6-0.2l9.2,4.9c0.2,0.1,0.3,0.4,0.2,0.6v0
	C10.9,12,10.7,12.1,10.5,11.9z"/>
</svg>
