<?xml version="1.0" encoding="utf-8"?>
<!-- Generator: Adobe Illustrator 25.2.1, SVG Export Plug-In . SVG Version: 6.00 Build 0)  -->
<svg version="1.1" id="Layer_1" xmlns="http://www.w3.org/2000/svg" xmlns:xlink="http://www.w3.org/1999/xlink" x="0px" y="0px"
	 viewBox="0 0 24 24" style="enable-background:new 0 0 24 24;" xml:space="preserve">
<path d="M14.5,15v4.8c0,1-0.1,2-1.3,1.8c-0.7,0-0.9-0.7-0.9-1.7v-5.1c0-0.6,0.1-1.1,0.4-1.4v-0.6c0-0.7-0.5-1.1-1.4-1H6.4
	c-0.1,0-1.5,0-1.5-1.8V6.6c0-1.3,0.2-1.8,1.5-1.8h1.2c0.4-1.1,1.5-1.3,2.6-1.3h5.8c1.1,0,2.1,0.1,2.5,1.3c0.5,0.1,0.9,0.3,0.8,1.1
	c0,0.6-0.4,0.7-0.8,0.7C18.2,7.7,17.3,8,16.1,8H9.9C8.6,8,7.6,7.7,7.5,6.6H6.4v3.5h5.9c0.7,0,1.8,0,1.8,0.8v2.4
	C14.3,13.6,14.5,14.3,14.5,15z"/>
</svg>
