<?xml version="1.0" encoding="utf-8"?>
<!-- Generator: Adobe Illustrator 25.2.1, SVG Export Plug-In . SVG Version: 6.00 Build 0)  -->
<svg version="1.1" id="Layer_2_1_" xmlns="http://www.w3.org/2000/svg" xmlns:xlink="http://www.w3.org/1999/xlink" x="0px" y="0px"
	 viewBox="0 0 24 24" style="enable-background:new 0 0 24 24;" xml:space="preserve">
<style type="text/css">
	.st0{fill:#FFFFFF;}
</style>
<g>
	<path d="M7,12.8c0-0.1,0-0.2,0-0.3c0-1.3,0-2.5,0-3.8C7,8.5,7.1,8,6,7.4C5.7,7.2,5.7,7,5.8,6.7c0.4-0.8,0.7-1.5,1.1-2.3
		C7.2,4.1,7.5,4,7.8,4.3c0.8,0.8,1.6,1.5,2.3,2.3c0.1,0.1,0.2,0.3,0.2,0.5c0.3,1.7,0.7,3.4,1,5.1c0,0.2,0.1,0.4,0.5,0.3
		c0-0.6,0-1.1,0-1.7c0-0.6,0.1-0.7,0.7-0.7c1.1,0,2.1,0,3.2,0c0.6,0,0.7,0.1,0.7,0.7c0,0.6,0,1.1,0,1.7c0.3,0.1,0.4,0,0.5-0.3
		c0.7-2.5,1.5-5,2.1-7.6c0.3-1.2,1.8-1.9,3-1.8c0.1,0,0.3,0.3,0.3,0.4c0,0.1-0.1,0.5-0.3,0.5c-0.3,0.1-0.6,0.1-1,0.2
		c-0.6,0.2-0.9,0.7-1,1.4c-0.7,2.6-1.5,5.1-2.1,7.6c-0.2,0.7-0.1,1.5-0.1,2.3c0,0.1-0.1-0.2,0-0.1c1.3,0.6,2,1.6,2.1,3
		s-0.5,2.4-1.7,3.2c-1.8,1.1-4.1,0.4-5-1.5c-0.1-0.3-0.3-0.4-0.6-0.4c-1.1,0-2.2,0-3.3,0c-0.2,0-0.4,0.1-0.4,0.3
		c-0.4,1.3-1.4,2.1-2.8,2.1c-0.4,0-0.9,0-1.3,0c-0.9,0-1.5-0.7-1.5-1.5c0-2.9,0-5.7,0-8.6c0-0.3,0.2-0.4,0.6-0.4
		c1,0.1,1.9,0.5,2.6,1.1C6.7,12.7,6.8,12.8,7,12.8C6.9,12.8,6.9,12.8,7,12.8z"/>
	<path d="M5,4.3C4.8,4.4,4.7,4.6,4.5,4.6C4.2,4.7,4,4.5,4,4.2s0.2-0.5,0.4-0.4C4.7,3.8,4.8,4,5,4.1C5,4.1,5,4.2,5,4.3z"/>
	<path d="M3.3,5.8C3,5.8,2.8,5.6,2.8,5.4C2.9,5.2,3.1,5,3.3,5c0.3-0.1,0.5,0.1,0.5,0.4C3.7,5.7,3.5,5.8,3.3,5.8z"/>
	<path d="M3.2,3.5C3,3.3,2.9,3.1,2.8,3c0-0.3,0.2-0.5,0.4-0.4c0.2,0,0.4,0.3,0.4,0.4c0,0.2-0.2,0.3-0.3,0.5C3.3,3.5,3.2,3.5,3.2,3.5
		z"/>
</g>
<circle class="st0" cx="16.4" cy="18.7" r="1.9"/>
</svg>
