<?xml version="1.0" encoding="utf-8"?>
<!-- Generator: Adobe Illustrator 25.2.1, SVG Export Plug-In . SVG Version: 6.00 Build 0)  -->
<svg version="1.1" id="Layer_2_1_" xmlns="http://www.w3.org/2000/svg" xmlns:xlink="http://www.w3.org/1999/xlink" x="0px" y="0px"
	 viewBox="0 0 24 24" style="enable-background:new 0 0 24 24;" xml:space="preserve">
<style type="text/css">
	.st0{fill:#FFFFFF;}
</style>
<g>
	<path d="M18,7.9c-1.5,0.2-2.2,0.3-2.9-1.5c-0.5-1.3-0.6-3.1-0.6-3.9c0.2,0,2.4,1,3.3,1.5c0.8,0.5,1.9,1.3,1.3,2.6
		c0,0.1-0.4,0.7-0.4,0.8C18.7,7.4,18,7.9,18,7.9z"/>
</g>
<path d="M20.7,8.5l1.8,1.9c0.3,0.4,0.4,0.8-0.1,1.3c0,0-0.8,0.6-1.3,0l-1.8-1.9c-0.5-0.3-0.4-0.9,0-1.3h0.1
	C19.7,8.1,20.3,8.1,20.7,8.5z"/>
<path d="M13.6,1.1H9.2C9.1,1.1,9,1.3,9,1.6l0,0C9,1.8,9.1,2,9.2,2h4.4c0.1,0,0.2-0.2,0.2-0.5l0,0C13.9,1.3,13.8,1.1,13.6,1.1z"/>
<path d="M13.6,2.9H9.2C9.1,2.9,9,3.1,9,3.4l0,0c0,0.2,0.1,0.5,0.2,0.5h4.4c0.1,0,0.2-0.2,0.2-0.5l0,0C13.9,3.1,13.8,2.9,13.6,2.9z"
	/>
<path d="M13.7,4.6H9.3c-0.1,0-0.2,0.2-0.2,0.5l0,0c0,0.2,0.1,0.5,0.2,0.5h4.4c0.1,0,0.2-0.2,0.2-0.5l0,0C14,4.8,13.9,4.6,13.7,4.6z"
	/>
<path d="M13.6,6.3H9.2C9.1,6.3,9,6.5,9,6.8l0,0C9,7,9.1,7.2,9.2,7.2h4.4c0.1,0,0.2-0.2,0.2-0.5l0,0C13.9,6.8,13.8,6.3,13.6,6.3z"/>
<path d="M21,22.6h-2.9c-1.1,0-2-0.9-2-2v-2.9c0-1.1,0.9-2,2-2H21c1.1,0,2,0.9,2,2v2.9C23,21.7,22.1,22.6,21,22.6z"/>
<rect x="17.9" y="17.5" transform="matrix(0.7071 -0.7071 0.7071 0.7071 -7.822 19.4227)" class="st0" width="3.3" height="3.3"/>
<path d="M13.5,22.6h-2.9c-1.1,0-2-0.9-2-2v-2.9c0-1.1,0.9-2,2-2h2.9c1.1,0,2,0.9,2,2v2.9C15.5,21.7,14.6,22.6,13.5,22.6z"/>
<path d="M5.9,22.6H3.1c-1.1,0-2-0.9-2-2v-2.9c0-1.1,0.9-2,2-2H6c1.1,0,2,0.9,2,2v2.9C7.9,21.7,7,22.6,5.9,22.6z"/>
<rect x="2.8" y="17.5" transform="matrix(0.7071 -0.7071 0.7071 0.7071 -12.2084 8.7454)" class="st0" width="3.3" height="3.3"/>
<path d="M5.9,7.4H3.1c-1.1,0-2-0.9-2-2V2.5c0-1.1,0.9-2,2-2H6c1.1,0,2,0.9,2,2v2.9C7.9,6.5,7,7.4,5.9,7.4z"/>
<rect x="2.8" y="2.3" transform="matrix(0.7071 -0.7071 0.7071 0.7071 -1.4605 4.3219)" class="st0" width="3.3" height="3.3"/>
<path d="M13.5,15h-2.9c-1.1,0-2-0.9-2-2v-2.9c0-1.1,0.9-2,2-2h2.9c1.1,0,2,0.9,2,2V13C15.5,14.1,14.6,15,13.5,15z"/>
<path d="M6,15H3.1c-1.1,0-2-0.9-2-2v-2.9c0-1.1,0.9-2,2-2H6c1.1,0,2,0.9,2,2V13C8,14.1,7.1,15,6,15z"/>
<rect x="2.9" y="9.9" transform="matrix(0.7071 -0.7071 0.7071 0.7071 -6.8306 6.6044)" class="st0" width="3.3" height="3.3"/>
<path d="M18.7,7l1.2,1.3c0.3,0.3,0.3,0.7,0,0.9l0,0c-0.3,0.3-0.7,0.3-0.9,0l-1.2-1.3c-0.3-0.3-0.3-0.7,0-0.9l0,0
	C18,6.7,18.5,6.7,18.7,7z"/>
<circle class="st0" cx="12.1" cy="11.4" r="2.1"/>
<circle class="st0" cx="12.1" cy="19.5" r="2.1"/>
</svg>
