<?xml version="1.0" encoding="utf-8"?>
<!-- Generator: Adobe Illustrator 25.2.1, SVG Export Plug-In . SVG Version: 6.00 Build 0)  -->
<svg version="1.1" id="Layer_1" xmlns="http://www.w3.org/2000/svg" xmlns:xlink="http://www.w3.org/1999/xlink" x="0px" y="0px"
	 viewBox="0 0 24 24" style="enable-background:new 0 0 24 24;" xml:space="preserve">
<path d="M5,22v-2h6v-4H9c-1.4,0-2.6-0.5-3.5-1.5S4,12.4,4,11c0-1,0.3-1.9,0.8-2.8s1.3-1.5,2.2-1.8c0.2-1.2,0.7-2.3,1.6-3.1
	S10.7,2,12,2s2.4,0.4,3.3,1.3c0.9,0.8,1.5,1.9,1.6,3.1c0.9,0.4,1.7,1,2.2,1.8C19.7,9.1,20,10,20,11c0,1.4-0.5,2.6-1.5,3.5
	S16.4,16,15,16h-2v4h6v2H5z M9,14h6c0.8,0,1.5-0.3,2.1-0.9c0.6-0.6,0.9-1.3,0.9-2.1c0-0.6-0.2-1.2-0.5-1.7s-0.8-0.9-1.3-1.1l-1-0.5
	l-0.2-1.2c-0.1-0.8-0.4-1.4-1-1.9C13.4,4.3,12.8,4,12,4s-1.4,0.3-2,0.8s-0.9,1.1-1,1.9L8.9,7.8L7.8,8.2c-0.5,0.2-1,0.6-1.3,1.1
	C6.2,9.8,6,10.4,6,11c0,0.8,0.3,1.5,0.9,2.1C7.5,13.7,8.2,14,9,14z"/>
</svg>
