<?xml version="1.0" encoding="utf-8"?>
<!-- Generator: Adobe Illustrator 25.2.1, SVG Export Plug-In . SVG Version: 6.00 Build 0)  -->
<svg version="1.1" id="Layer_1" xmlns="http://www.w3.org/2000/svg" xmlns:xlink="http://www.w3.org/1999/xlink" x="0px" y="0px"
	 viewBox="0 0 24 24" style="enable-background:new 0 0 24 24;" xml:space="preserve">
<g>
	<path d="M6.9,13.3c-0.3-0.5-0.5-0.9-0.8-1.3c-0.1-0.1-0.3-0.3-0.5-0.3c-0.6,0-1.3,0-1.9,0.1c-1.1,0.2-1.9,1-2,2
		c-0.1,1.3,0,2.6,0,3.9c0,0.4,0.3,0.7,0.7,0.8c0.4,0.1,0.8,0,1-0.4c0.1-0.2,0.2-0.5,0.2-0.7c0-1,0-1.9,0-2.9c0.3,0,0.6,0,0.9,0
		c0,1.3,0,2.6,0,3.9c1.5,0,2.9,0,4.3,0c0.7,0,0.7,0,0.7-0.7c0-1.1,0-2.1,0-3.2c0.3,0,0.5,0,0.8,0c0,0.5,0,1,0,1.5
		c0,0.9,0.8,1.3,1.5,0.8c0.9-0.6,1.8-1.2,2.6-1.7c0.6-0.4,0.7-0.9,0.4-1.4s-0.9-0.6-1.5-0.2c-0.4,0.2-0.7,0.5-1.1,0.8
		c-0.4-1.7-1-2.3-2.5-2.6c-0.5-0.1-1-0.1-1.5,0c-0.1,0-0.3,0.2-0.4,0.3C7.4,12.3,7.2,12.8,6.9,13.3z M21.9,15.2c-2.3,0-4.6,0-6.9,0
		c0,0.3,0,0.6,0,0.9c0.2,0,0.4,0,0.6,0c2,0,4.1,0,6.1,0c1,0,1.3-0.3,1.3-1.3c0-2.5,0-4.9,0-7.4c0-1-0.3-1.3-1.3-1.3
		c-3.1,0-6.2,0-9.2,0c-2.2,0-2.2,0.1-2.1,2.2c0,0.8,0,1.6,0,2.4c0.3,0,0.6,0,0.9,0c0-1.2,0-2.3,0-3.5c3.6,0,7.2,0,10.7,0
		C21.9,9.9,21.9,12.5,21.9,15.2z M6.9,6.5c-1.2,0-2.3,1-2.3,2.3s1,2.3,2.3,2.3c1.2,0,2.3-1,2.3-2.3C9.2,7.6,8.2,6.5,6.9,6.5z"/>
	<path d="M6.9,13.3c0.3-0.5,0.6-0.9,0.8-1.3c0.1-0.1,0.3-0.3,0.4-0.3c0.5,0,1,0,1.5,0c1.5,0.2,2.1,0.8,2.5,2.6
		c0.4-0.3,0.8-0.5,1.1-0.8c0.6-0.4,1.1-0.3,1.5,0.2c0.3,0.5,0.2,1-0.4,1.4c-0.9,0.6-1.7,1.2-2.6,1.7c-0.8,0.5-1.5,0.1-1.5-0.8
		c0-0.5,0-1,0-1.5c-0.3,0-0.5,0-0.8,0c0,1.1,0,2.1,0,3.2c0,0.7,0,0.7-0.7,0.7c-1.4,0-2.8,0-4.3,0c0-1.3,0-2.6,0-3.9
		c-0.3,0-0.5,0-0.9,0c0,1,0,1.9,0,2.9c0,0.2,0,0.5-0.2,0.7c-0.2,0.4-0.6,0.5-1,0.4s-0.7-0.4-0.7-0.8c0-1.3-0.1-2.6,0-3.9
		c0.1-1,0.9-1.8,2-2c0.6-0.1,1.3-0.1,1.9-0.1c0.2,0,0.4,0.1,0.5,0.3C6.3,12.3,6.6,12.8,6.9,13.3z"/>
	<path d="M21.9,15.2c0-2.7,0-5.4,0-8c-3.6,0-7.1,0-10.7,0c0,1.2,0,2.3,0,3.5c-0.3,0-0.6,0-0.9,0c0-0.8,0-1.6,0-2.4
		c0-2.1,0-2.2,2.1-2.2c3.1,0,6.2,0,9.2,0c1,0,1.3,0.3,1.3,1.3c0,2.5,0,4.9,0,7.4c0,1-0.3,1.3-1.3,1.3c-2,0-4.1,0-6.1,0
		c-0.2,0-0.4,0-0.6,0c0-0.3,0-0.6,0-0.9C17.3,15.2,19.6,15.2,21.9,15.2z"/>
	<path d="M6.9,6.5c1.3,0,2.3,1,2.3,2.3c0,1.2-1,2.2-2.3,2.3c-1.3,0-2.3-1-2.3-2.3C4.6,7.6,5.7,6.5,6.9,6.5z"/>
</g>
<path d="M19.9,9.7c0,0,0.3,0.6-0.2,0.9l-3.6,3c-0.2,0.1-0.8,0.1-0.9-0.1l0,0c-0.1-0.2-0.1-0.7,0.1-0.8l3.5-2.9
	C19,9.6,19.6,9.3,19.9,9.7z"/>
</svg>
